# xmcd CD database file
#
# Track frame offsets:
#	150
#	13677
#	26679
#	37616
#	54410
#	68075
#	77892
#	93774
#	106371
#	120100
#	132505
#	144507
#
# Disc length: 2062 seconds
#
# Revision: 0
# Processed by: cddbd v1.4b41PL1 Copyright (c) Steve Scherf et al.
# Submitted via: CD2WAV32(EN) R3.17
#
DISCID=8e080c0c
DTITLE=Reno Brothers - Three Part Harmony
DYEAR=1900
DGENRE=
TTITLE0=Midnight Lover's Express
TTITLE1=Hard to Survive
TTITLE2=Blue Ridge Side of Blue
TTITLE3=Crosstie Junction
TTITLE4=Kentucky Serenade
TTITLE5=Serious Love
TTITLE6=Drake's Creek Reel
TTITLE7=Movie Time Blues
TTITLE8=Let in the Guiding Light
TTITLE9=Somewhere Tonight
TTITLE10=Tarnation
TTITLE11=Always Late with Your Kisses
EXTD=
EXTT0=Three Part Harmony
EXTT1=Three Part Harmony
EXTT2=Three Part Harmony
EXTT3=Three Part Harmony
EXTT4=Three Part Harmony
EXTT5=Three Part Harmony
EXTT6=Three Part Harmony
EXTT7=Three Part Harmony
EXTT8=Three Part Harmony
EXTT9=Three Part Harmony
EXTT10=Three Part Harmony
EXTT11=Three Part Harmony
PLAYORDER=
